<?xml version="1.0" encoding="UTF-8"?>
<svg id="Layer_1" data-name="Layer 1" xmlns="http://www.w3.org/2000/svg" viewBox="0 0 40.57 40.57">
  <defs>
    <style>
      .cls-1, .cls-2 {
        fill: none;
        stroke: hsl(194, 100%, 47%);
        stroke-linejoin: round;
      }

      .cls-3 {
        fill: hsl(194, 100%, 47%);
      }

      .cls-2 {
        stroke-linecap: round;
      }
    </style>
  </defs>
  <path class="cls-3" d="M6.43,6.9C9.94,3.27,14.85,1,20.28,1s10.34,2.27,13.85,5.9h1.35C31.76,2.68,26.34,0,20.28,0S8.8,2.68,5.08,6.9h1.35Z"/>
  <path class="cls-3" d="M37.27,31.34c2.08-3.18,3.3-6.98,3.3-11.06s-1.22-7.88-3.3-11.06h-1.21c2.2,3.13,3.51,6.94,3.51,11.06s-1.31,7.92-3.51,11.06h1.21Z"/>
  <path class="cls-3" d="M34.13,33.67c-3.51,3.63-8.42,5.9-13.85,5.9s-10.34-2.27-13.85-5.9h-1.35c3.72,4.22,9.15,6.9,15.2,6.9s11.48-2.68,15.2-6.9h-1.35Z"/>
  <path class="cls-3" d="M4.51,31.34c-2.2-3.13-3.51-6.94-3.51-11.06s1.31-7.93,3.51-11.06h-1.21c-2.08,3.18-3.3,6.98-3.3,11.06s1.22,7.88,3.3,11.06h1.21Z"/>
  <path class="cls-3" d="M34.69,21.39c-.54,7.09-6.21,12.75-13.29,13.29v1c7.64-.55,13.75-6.65,14.29-14.29h-1Z"/>
  <path class="cls-3" d="M21.39,5.88c7.09.54,12.75,6.21,13.29,13.29h1c-.55-7.64-6.66-13.75-14.29-14.29v1Z"/>
  <path class="cls-3" d="M5.88,19.17c.54-7.09,6.21-12.75,13.29-13.29v-1c-7.64.55-13.75,6.66-14.29,14.29h1Z"/>
  <path class="cls-3" d="M19.17,34.69c-7.09-.54-12.75-6.21-13.29-13.29h-1c.55,7.64,6.65,13.75,14.29,14.29v-1Z"/>
  <circle class="cls-3 cls-2" cx="36.74" cy="9.33" r=".92"/>
  <circle class="cls-3 cls-2" cx="5.41" cy="21.61" r=".92"/>
  <circle class="cls-3 cls-2" cx="5.8" cy="6.9" r=".92"/>
  <circle class="cls-3 cls-2" cx="3.96" cy="31.34" r=".92"/>
  <circle class="cls-3 cls-2" cx="34.77" cy="33.67" r=".92"/>
  <circle class="cls-3 cls-2" cx="18.69" cy="5.4" r=".92"/>
  <circle class="cls-3 cls-2" cx="35.14" cy="18.84" r=".92"/>
  <circle class="cls-3 cls-2" cx="21.88" cy="35.01" r=".92"/>
  <g>
    <path class="cls-3" d="M16.12,13.93h4.02c.28,0,.5-.22.5-.5s-.22-.5-.5-.5h-9.04c-.28,0-.5.22-.5.5s.22.5.5.5h4.03s0,.01,0,.02l.11,13.21c0,.27.23.5.5.5h0c.28,0,.5-.23.5-.5l-.11-13.21s0,0,0,0Z"/>
    <polygon class="cls-1" points="24.61 13.51 21.73 20.55 27.48 20.55 24.61 13.51"/>
    <line class="cls-2" x1="29.95" y1="27.09" x2="28.21" y2="22.81"/>
    <polyline class="cls-2" points="28.21 22.81 20.79 22.81 19.05 27.09"/>
  </g>
</svg>